<mxfile host="app.diagrams.net" modified="2024-09-20T08:07:55.393Z" agent="Mozilla/5.0 (Windows NT 10.0; Win64; x64) AppleWebKit/537.36 (KHTML, like Gecko) Chrome/128.0.0.0 Safari/537.36" etag="THDzO8c8yZp0_vl-opjj" version="24.6.2" type="device">
  <diagram name="Page-1" id="IcTelmRaAKa_1RYQ4sNG">
    <mxGraphModel dx="807" dy="707" grid="1" gridSize="10" guides="1" tooltips="1" connect="1" arrows="1" fold="1" page="1" pageScale="1" pageWidth="827" pageHeight="1169" math="0" shadow="0">
      <root>
        <mxCell id="0" />
        <mxCell id="1" parent="0" />
        <mxCell id="mRjRWvZ7tJanCQXSfX6C-9" style="edgeStyle=orthogonalEdgeStyle;rounded=0;orthogonalLoop=1;jettySize=auto;html=1;exitX=0.75;exitY=0;exitDx=0;exitDy=0;entryX=0.75;entryY=1;entryDx=0;entryDy=0;" edge="1" parent="1" source="mRjRWvZ7tJanCQXSfX6C-1" target="mRjRWvZ7tJanCQXSfX6C-3">
          <mxGeometry relative="1" as="geometry">
            <Array as="points" />
          </mxGeometry>
        </mxCell>
        <mxCell id="mRjRWvZ7tJanCQXSfX6C-24" style="edgeStyle=orthogonalEdgeStyle;rounded=0;orthogonalLoop=1;jettySize=auto;html=1;exitX=0;exitY=0.75;exitDx=0;exitDy=0;entryX=1;entryY=0.75;entryDx=0;entryDy=0;" edge="1" parent="1" source="mRjRWvZ7tJanCQXSfX6C-1" target="mRjRWvZ7tJanCQXSfX6C-2">
          <mxGeometry relative="1" as="geometry" />
        </mxCell>
        <mxCell id="mRjRWvZ7tJanCQXSfX6C-1" value="&lt;b&gt;&lt;font style=&quot;font-size: 18px;&quot;&gt;1&lt;/font&gt;&lt;/b&gt;&lt;div&gt;Bonne Santé&lt;/div&gt;" style="rounded=1;whiteSpace=wrap;html=1;" vertex="1" parent="1">
          <mxGeometry x="379" y="240" width="120" height="60" as="geometry" />
        </mxCell>
        <mxCell id="mRjRWvZ7tJanCQXSfX6C-18" style="edgeStyle=orthogonalEdgeStyle;rounded=0;orthogonalLoop=1;jettySize=auto;html=1;entryX=0;entryY=0.5;entryDx=0;entryDy=0;" edge="1" parent="1" source="mRjRWvZ7tJanCQXSfX6C-2" target="mRjRWvZ7tJanCQXSfX6C-1">
          <mxGeometry relative="1" as="geometry" />
        </mxCell>
        <mxCell id="mRjRWvZ7tJanCQXSfX6C-20" style="edgeStyle=orthogonalEdgeStyle;rounded=0;orthogonalLoop=1;jettySize=auto;html=1;exitX=0.5;exitY=0;exitDx=0;exitDy=0;entryX=0;entryY=0.75;entryDx=0;entryDy=0;" edge="1" parent="1" source="mRjRWvZ7tJanCQXSfX6C-2" target="mRjRWvZ7tJanCQXSfX6C-3">
          <mxGeometry relative="1" as="geometry" />
        </mxCell>
        <mxCell id="mRjRWvZ7tJanCQXSfX6C-2" value="&lt;span style=&quot;font-size: 18px;&quot;&gt;&lt;b&gt;2&lt;/b&gt;&lt;/span&gt;&lt;br&gt;&lt;div&gt;Enrhumé&lt;/div&gt;" style="rounded=1;whiteSpace=wrap;html=1;" vertex="1" parent="1">
          <mxGeometry x="209" y="240" width="90" height="60" as="geometry" />
        </mxCell>
        <mxCell id="mRjRWvZ7tJanCQXSfX6C-16" style="edgeStyle=orthogonalEdgeStyle;rounded=0;orthogonalLoop=1;jettySize=auto;html=1;exitX=0.25;exitY=1;exitDx=0;exitDy=0;entryX=0.25;entryY=0;entryDx=0;entryDy=0;" edge="1" parent="1" source="mRjRWvZ7tJanCQXSfX6C-3" target="mRjRWvZ7tJanCQXSfX6C-1">
          <mxGeometry relative="1" as="geometry" />
        </mxCell>
        <mxCell id="mRjRWvZ7tJanCQXSfX6C-3" value="&lt;span style=&quot;font-size: 18px;&quot;&gt;&lt;b&gt;3&lt;/b&gt;&lt;/span&gt;&lt;br&gt;&lt;div&gt;Malade&lt;/div&gt;" style="rounded=1;whiteSpace=wrap;html=1;" vertex="1" parent="1">
          <mxGeometry x="379" y="100" width="120" height="60" as="geometry" />
        </mxCell>
        <mxCell id="mRjRWvZ7tJanCQXSfX6C-4" value="n+1 dépend de n&amp;nbsp;" style="text;html=1;align=center;verticalAlign=middle;whiteSpace=wrap;rounded=0;" vertex="1" parent="1">
          <mxGeometry x="569" y="220" width="110" height="30" as="geometry" />
        </mxCell>
        <mxCell id="mRjRWvZ7tJanCQXSfX6C-5" value="" style="endArrow=classic;html=1;rounded=0;" edge="1" parent="1">
          <mxGeometry width="50" height="50" relative="1" as="geometry">
            <mxPoint x="609" y="210" as="sourcePoint" />
            <mxPoint x="659" y="160" as="targetPoint" />
          </mxGeometry>
        </mxCell>
        <mxCell id="mRjRWvZ7tJanCQXSfX6C-7" style="edgeStyle=orthogonalEdgeStyle;rounded=0;orthogonalLoop=1;jettySize=auto;html=1;entryX=0;entryY=1;entryDx=0;entryDy=0;" edge="1" parent="1" target="mRjRWvZ7tJanCQXSfX6C-1">
          <mxGeometry relative="1" as="geometry">
            <mxPoint x="499" y="260" as="sourcePoint" />
            <Array as="points">
              <mxPoint x="499" y="260" />
              <mxPoint x="519" y="260" />
              <mxPoint x="519" y="320" />
              <mxPoint x="379" y="320" />
            </Array>
          </mxGeometry>
        </mxCell>
        <mxCell id="mRjRWvZ7tJanCQXSfX6C-8" value="5/6" style="text;html=1;align=center;verticalAlign=middle;resizable=0;points=[];autosize=1;strokeColor=none;fillColor=none;" vertex="1" parent="1">
          <mxGeometry x="429" y="320" width="40" height="30" as="geometry" />
        </mxCell>
        <mxCell id="mRjRWvZ7tJanCQXSfX6C-10" value="1/12" style="text;html=1;align=center;verticalAlign=middle;whiteSpace=wrap;rounded=0;" vertex="1" parent="1">
          <mxGeometry x="459" y="190" width="60" height="30" as="geometry" />
        </mxCell>
        <mxCell id="mRjRWvZ7tJanCQXSfX6C-14" style="edgeStyle=orthogonalEdgeStyle;rounded=0;orthogonalLoop=1;jettySize=auto;html=1;exitX=1;exitY=0.5;exitDx=0;exitDy=0;" edge="1" parent="1" source="mRjRWvZ7tJanCQXSfX6C-3">
          <mxGeometry relative="1" as="geometry">
            <mxPoint x="379" y="120" as="targetPoint" />
            <Array as="points">
              <mxPoint x="519" y="130" />
              <mxPoint x="519" y="80" />
              <mxPoint x="359" y="80" />
              <mxPoint x="359" y="120" />
            </Array>
          </mxGeometry>
        </mxCell>
        <mxCell id="mRjRWvZ7tJanCQXSfX6C-15" value="3/4" style="text;html=1;align=center;verticalAlign=middle;resizable=0;points=[];autosize=1;strokeColor=none;fillColor=none;" vertex="1" parent="1">
          <mxGeometry x="419" y="50" width="40" height="30" as="geometry" />
        </mxCell>
        <mxCell id="mRjRWvZ7tJanCQXSfX6C-17" value="1/4" style="text;html=1;align=center;verticalAlign=middle;resizable=0;points=[];autosize=1;strokeColor=none;fillColor=none;" vertex="1" parent="1">
          <mxGeometry x="369" y="190" width="40" height="30" as="geometry" />
        </mxCell>
        <mxCell id="mRjRWvZ7tJanCQXSfX6C-19" value="1/4" style="text;html=1;align=center;verticalAlign=middle;resizable=0;points=[];autosize=1;strokeColor=none;fillColor=none;" vertex="1" parent="1">
          <mxGeometry x="319" y="240" width="40" height="30" as="geometry" />
        </mxCell>
        <mxCell id="mRjRWvZ7tJanCQXSfX6C-21" value="1/4" style="text;html=1;align=center;verticalAlign=middle;resizable=0;points=[];autosize=1;strokeColor=none;fillColor=none;" vertex="1" parent="1">
          <mxGeometry x="209" y="190" width="40" height="30" as="geometry" />
        </mxCell>
        <mxCell id="mRjRWvZ7tJanCQXSfX6C-22" style="edgeStyle=orthogonalEdgeStyle;rounded=0;orthogonalLoop=1;jettySize=auto;html=1;exitX=0;exitY=0.5;exitDx=0;exitDy=0;entryX=0.5;entryY=1;entryDx=0;entryDy=0;" edge="1" parent="1" source="mRjRWvZ7tJanCQXSfX6C-2" target="mRjRWvZ7tJanCQXSfX6C-2">
          <mxGeometry relative="1" as="geometry" />
        </mxCell>
        <mxCell id="mRjRWvZ7tJanCQXSfX6C-23" value="1/2" style="text;html=1;align=center;verticalAlign=middle;resizable=0;points=[];autosize=1;strokeColor=none;fillColor=none;" vertex="1" parent="1">
          <mxGeometry x="149" y="280" width="40" height="30" as="geometry" />
        </mxCell>
        <mxCell id="mRjRWvZ7tJanCQXSfX6C-25" value="1/12" style="text;html=1;align=center;verticalAlign=middle;resizable=0;points=[];autosize=1;strokeColor=none;fillColor=none;" vertex="1" parent="1">
          <mxGeometry x="309" y="290" width="50" height="30" as="geometry" />
        </mxCell>
        <mxCell id="mRjRWvZ7tJanCQXSfX6C-26" value="1" style="text;html=1;align=center;verticalAlign=middle;resizable=0;points=[];autosize=1;strokeColor=none;fillColor=none;" vertex="1" parent="1">
          <mxGeometry x="305" y="390" width="30" height="30" as="geometry" />
        </mxCell>
        <mxCell id="mRjRWvZ7tJanCQXSfX6C-27" value="2" style="text;html=1;align=center;verticalAlign=middle;resizable=0;points=[];autosize=1;strokeColor=none;fillColor=none;" vertex="1" parent="1">
          <mxGeometry x="379" y="390" width="30" height="30" as="geometry" />
        </mxCell>
        <mxCell id="mRjRWvZ7tJanCQXSfX6C-28" value="3" style="text;html=1;align=center;verticalAlign=middle;resizable=0;points=[];autosize=1;strokeColor=none;fillColor=none;" vertex="1" parent="1">
          <mxGeometry x="460" y="390" width="30" height="30" as="geometry" />
        </mxCell>
        <mxCell id="mRjRWvZ7tJanCQXSfX6C-30" value="2" style="text;html=1;align=center;verticalAlign=middle;resizable=0;points=[];autosize=1;strokeColor=none;fillColor=none;" vertex="1" parent="1">
          <mxGeometry x="230" y="502" width="30" height="30" as="geometry" />
        </mxCell>
        <mxCell id="mRjRWvZ7tJanCQXSfX6C-31" value="3" style="text;html=1;align=center;verticalAlign=middle;resizable=0;points=[];autosize=1;strokeColor=none;fillColor=none;" vertex="1" parent="1">
          <mxGeometry x="230" y="572" width="30" height="30" as="geometry" />
        </mxCell>
        <mxCell id="mRjRWvZ7tJanCQXSfX6C-32" value="1" style="text;html=1;align=center;verticalAlign=middle;resizable=0;points=[];autosize=1;strokeColor=none;fillColor=none;" vertex="1" parent="1">
          <mxGeometry x="230" y="432" width="30" height="30" as="geometry" />
        </mxCell>
        <mxCell id="mRjRWvZ7tJanCQXSfX6C-33" value="0&lt;span style=&quot;white-space: pre;&quot;&gt;&#x9;&lt;/span&gt;" style="text;html=1;align=center;verticalAlign=middle;resizable=0;points=[];autosize=1;strokeColor=none;fillColor=none;" vertex="1" parent="1">
          <mxGeometry x="295" y="432" width="50" height="30" as="geometry" />
        </mxCell>
        <mxCell id="mRjRWvZ7tJanCQXSfX6C-34" value="0" style="text;html=1;align=center;verticalAlign=middle;resizable=0;points=[];autosize=1;strokeColor=none;fillColor=none;" vertex="1" parent="1">
          <mxGeometry x="379" y="430" width="30" height="30" as="geometry" />
        </mxCell>
        <mxCell id="mRjRWvZ7tJanCQXSfX6C-35" value="1" style="text;html=1;align=center;verticalAlign=middle;resizable=0;points=[];autosize=1;strokeColor=none;fillColor=none;" vertex="1" parent="1">
          <mxGeometry x="460" y="432" width="30" height="30" as="geometry" />
        </mxCell>
        <mxCell id="mRjRWvZ7tJanCQXSfX6C-36" value="1/4" style="text;html=1;align=center;verticalAlign=middle;resizable=0;points=[];autosize=1;strokeColor=none;fillColor=none;" vertex="1" parent="1">
          <mxGeometry x="300" y="502" width="40" height="30" as="geometry" />
        </mxCell>
        <mxCell id="mRjRWvZ7tJanCQXSfX6C-37" value="1/2" style="text;html=1;align=center;verticalAlign=middle;resizable=0;points=[];autosize=1;strokeColor=none;fillColor=none;" vertex="1" parent="1">
          <mxGeometry x="373" y="502" width="40" height="30" as="geometry" />
        </mxCell>
        <mxCell id="mRjRWvZ7tJanCQXSfX6C-38" value="1/4" style="text;html=1;align=center;verticalAlign=middle;resizable=0;points=[];autosize=1;strokeColor=none;fillColor=none;" vertex="1" parent="1">
          <mxGeometry x="455" y="502" width="40" height="30" as="geometry" />
        </mxCell>
        <mxCell id="mRjRWvZ7tJanCQXSfX6C-39" value="1/4" style="text;html=1;align=center;verticalAlign=middle;resizable=0;points=[];autosize=1;strokeColor=none;fillColor=none;" vertex="1" parent="1">
          <mxGeometry x="300" y="572" width="40" height="30" as="geometry" />
        </mxCell>
        <mxCell id="mRjRWvZ7tJanCQXSfX6C-40" value="0" style="text;html=1;align=center;verticalAlign=middle;resizable=0;points=[];autosize=1;strokeColor=none;fillColor=none;" vertex="1" parent="1">
          <mxGeometry x="379" y="572" width="30" height="30" as="geometry" />
        </mxCell>
        <mxCell id="mRjRWvZ7tJanCQXSfX6C-41" value="3/4" style="text;html=1;align=center;verticalAlign=middle;resizable=0;points=[];autosize=1;strokeColor=none;fillColor=none;" vertex="1" parent="1">
          <mxGeometry x="454" y="572" width="40" height="30" as="geometry" />
        </mxCell>
      </root>
    </mxGraphModel>
  </diagram>
</mxfile>
